2014001_C1_05_grf
version=1
nRows=30
nColumns=19
inDegrees=no
endheader
time	ground_force_1_vx	ground_force_1_vy	ground_force_1_vz	ground_force_1_px	ground_force_1_py	ground_force_1_pz	ground_force_1_mx	ground_force_1_my	ground_force_1_mz	ground_force_2_vx	ground_force_2_vy	ground_force_2_vz	ground_force_2_px	ground_force_2_py	ground_force_2_pz	ground_force_2_mx	ground_force_2_my	ground_force_2_mz
      2.74500000	      0.00000000	      0.00000000	      0.00000000	      0.00000000	      0.00000000	      0.00000000	      0.00000000	      0.00000000	      0.00000000	     13.84658143	    600.29810295	    -14.85037040	      0.17524533	     -0.00200000	      0.71146344	      0.00000000	     -1.48752312	      0.00000000
      2.74600000	      0.00000000	      0.00000000	      0.00000000	      0.00000000	      0.00000000	      0.00000000	      0.00000000	      0.00000000	      0.00000000	     13.84034604	    600.61188787	    -14.74040747	      0.17526090	     -0.00200000	      0.71149681	      0.00000000	     -1.48667898	      0.00000000
      2.74700000	      0.00000000	      0.00000000	      0.00000000	      0.00000000	      0.00000000	      0.00000000	      0.00000000	      0.00000000	      0.00000000	     13.83328438	    600.92924535	    -14.62845812	      0.17527702	     -0.00200000	      0.71152834	      0.00000000	     -1.48575513	      0.00000000
      2.74800000	      0.00000000	      0.00000000	      0.00000000	      0.00000000	      0.00000000	      0.00000000	      0.00000000	      0.00000000	      0.00000000	     13.82558197	    601.24936700	    -14.51488547	      0.17529357	     -0.00200000	      0.71155838	      0.00000000	     -1.48476158	      0.00000000
      2.74900000	      0.00000000	      0.00000000	      0.00000000	      0.00000000	      0.00000000	      0.00000000	      0.00000000	      0.00000000	      0.00000000	     13.81710693	    601.57311335	    -14.39925469	      0.17531066	     -0.00200000	      0.71158655	      0.00000000	     -1.48367393	      0.00000000
      2.75000000	      0.00000000	      0.00000000	      0.00000000	      0.00000000	      0.00000000	      0.00000000	      0.00000000	      0.00000000	      0.00000000	     13.80803585	    601.89983249	    -14.28196542	      0.17532820	     -0.00200000	      0.71161321	      0.00000000	     -1.48250602	      0.00000000
      2.75100000	      0.00000000	      0.00000000	      0.00000000	      0.00000000	      0.00000000	      0.00000000	      0.00000000	      0.00000000	      0.00000000	     13.79826367	    602.23028064	    -14.16261606	      0.17534627	     -0.00200000	      0.71163798	     -0.00000000	     -1.48123160	      0.00000000
      2.75200000	      0.00000000	      0.00000000	      0.00000000	      0.00000000	      0.00000000	      0.00000000	      0.00000000	      0.00000000	      0.00000000	     13.78797293	    602.56385803	    -14.04164471	      0.17536477	     -0.00200000	      0.71166125	      0.00000000	     -1.47986787	      0.00000000
      2.75300000	      0.00000000	      0.00000000	      0.00000000	      0.00000000	      0.00000000	      0.00000000	      0.00000000	      0.00000000	      0.00000000	     13.77709210	    602.90145129	    -13.91869346	      0.17538380	     -0.00200000	      0.71168265	      0.00000000	     -1.47838537	      0.00000000
      2.75400000	      0.00000000	      0.00000000	      0.00000000	      0.00000000	      0.00000000	      0.00000000	      0.00000000	      0.00000000	      0.00000000	     13.76578659	    603.24238241	    -13.79420627	      0.17540324	     -0.00200000	      0.71170259	      0.00000000	     -1.47680119	      0.00000000
      2.75500000	      0.00000000	      0.00000000	      0.00000000	      0.00000000	      0.00000000	      0.00000000	      0.00000000	      0.00000000	      0.00000000	     13.75400349	    603.58766839	    -13.66786892	      0.17542319	     -0.00200000	      0.71172073	      0.00000000	     -1.47508163	      0.00000000
      2.75600000	      0.00000000	      0.00000000	      0.00000000	      0.00000000	      0.00000000	      0.00000000	      0.00000000	      0.00000000	      0.00000000	     13.74188066	    603.93655300	    -13.54011167	      0.17544354	     -0.00200000	      0.71173748	      0.00000000	     -1.47324749	      0.00000000
      2.75700000	      0.00000000	      0.00000000	      0.00000000	      0.00000000	      0.00000000	      0.00000000	      0.00000000	      0.00000000	      0.00000000	     13.72937113	    604.29018363	    -13.41066137	      0.17546437	     -0.00200000	      0.71175254	      0.00000000	     -1.47126379	      0.00000000
      2.75800000	      0.00000000	      0.00000000	      0.00000000	      0.00000000	      0.00000000	      0.00000000	      0.00000000	      0.00000000	      0.00000000	     13.71657699	    604.64772582	    -13.27992026	      0.17548557	     -0.00200000	      0.71176632	      0.00000000	     -1.46915656	      0.00000000
      2.75900000	      0.00000000	      0.00000000	      0.00000000	      0.00000000	      0.00000000	      0.00000000	      0.00000000	      0.00000000	      0.00000000	     13.70345056	    605.01040518	    -13.14764451	      0.17550723	     -0.00200000	      0.71177856	      0.00000000	     -1.46689098	      0.00000000
      2.76000000	      0.00000000	      0.00000000	      0.00000000	      0.00000000	      0.00000000	      0.00000000	      0.00000000	      0.00000000	      0.00000000	     13.69007528	    605.37730902	    -13.01420704	      0.17552922	     -0.00200000	      0.71178964	      0.00000000	     -1.46449697	      0.00000000
      2.76100000	      0.00000000	      0.00000000	      0.00000000	      0.00000000	      0.00000000	      0.00000000	      0.00000000	      0.00000000	      0.00000000	     13.67641091	    605.74966297	    -12.87939791	      0.17555162	     -0.00200000	      0.71179935	      0.00000000	     -1.46194133	      0.00000000
      2.76200000	      0.00000000	      0.00000000	      0.00000000	      0.00000000	      0.00000000	      0.00000000	      0.00000000	      0.00000000	      0.00000000	     13.66253197	    606.12660646	    -12.74355613	      0.17557434	     -0.00200000	      0.71180807	      0.00000000	     -1.45925717	      0.00000000
      2.76300000	      0.00000000	      0.00000000	      0.00000000	      0.00000000	      0.00000000	      0.00000000	      0.00000000	      0.00000000	      0.00000000	     13.64838928	    606.50933906	    -12.60650894	      0.17559742	     -0.00200000	      0.71181565	      0.00000000	     -1.45641653	      0.00000000
      2.76400000	      0.00000000	      0.00000000	      0.00000000	      0.00000000	      0.00000000	      0.00000000	      0.00000000	      0.00000000	      0.00000000	     13.63403499	    606.89686984	    -12.46856730	      0.17562079	     -0.00200000	      0.71182242	      0.00000000	     -1.45345722	      0.00000000
      2.76500000	      0.00000000	      0.00000000	      0.00000000	      0.00000000	      0.00000000	      0.00000000	      0.00000000	      0.00000000	      0.00000000	     13.61940801	    607.29060695	    -12.32960541	      0.17564449	     -0.00200000	      0.71182832	      0.00000000	     -1.45035927	      0.00000000
      2.76600000	      0.00000000	      0.00000000	      0.00000000	      0.00000000	      0.00000000	      0.00000000	      0.00000000	      0.00000000	      0.00000000	     13.60455602	    607.68935084	    -12.18991335	      0.17566844	     -0.00200000	      0.71183362	     -0.00000000	     -1.44715876	      0.00000000
      2.76700000	      0.00000000	      0.00000000	      0.00000000	      0.00000000	      0.00000000	      0.00000000	      0.00000000	      0.00000000	      0.00000000	     13.58941868	    608.09453577	    -12.04942595	      0.17569266	     -0.00200000	      0.71183831	      0.00000000	     -1.44383978	      0.00000000
      2.76800000	      0.00000000	      0.00000000	      0.00000000	      0.00000000	      0.00000000	      0.00000000	      0.00000000	      0.00000000	      0.00000000	     13.57404888	    608.50483179	    -11.90840267	      0.17571707	     -0.00200000	      0.71184260	      0.00000000	     -1.44043192	      0.00000000
      2.76900000	      0.00000000	      0.00000000	      0.00000000	      0.00000000	      0.00000000	      0.00000000	      0.00000000	      0.00000000	      0.00000000	     13.55838254	    608.92180353	    -11.76684806	      0.17574169	     -0.00200000	      0.71184654	     -0.00000000	     -1.43692071	      0.00000000
      2.77000000	      0.00000000	      0.00000000	      0.00000000	      0.00000000	      0.00000000	      0.00000000	      0.00000000	      0.00000000	      0.00000000	     13.54247332	    609.34409499	    -11.62498314	      0.17576642	     -0.00200000	      0.71185028	     -0.00000000	     -1.43333138	      0.00000000
      2.77100000	      0.00000000	      0.00000000	      0.00000000	      0.00000000	      0.00000000	      0.00000000	      0.00000000	      0.00000000	      0.00000000	     13.52624893	    609.77321863	    -11.48288744	      0.17579127	     -0.00200000	      0.71185393	     -0.00000000	     -1.42965284	      0.00000000
      2.77200000	      0.00000000	      0.00000000	      0.00000000	      0.00000000	      0.00000000	      0.00000000	      0.00000000	      0.00000000	      0.00000000	     13.50976378	    610.20787060	    -11.34074088	      0.17581617	     -0.00200000	      0.71185760	      0.00000000	     -1.42590995	      0.00000000
      2.77300000	      0.00000000	      0.00000000	      0.00000000	      0.00000000	      0.00000000	      0.00000000	      0.00000000	      0.00000000	      0.00000000	     13.49294335	    610.64945906	    -11.19870059	      0.17584109	     -0.00200000	      0.71186143	      0.00000000	     -1.42209746	      0.00000000
      2.77400000	      0.00000000	      0.00000000	      0.00000000	      0.00000000	      0.00000000	      0.00000000	      0.00000000	      0.00000000	      0.00000000	     13.47584426	    611.09668016	    -11.05688196	      0.17586601	     -0.00200000	      0.71186550	      0.00000000	     -1.41823969	      0.00000000
